<?xml version="1.0" encoding="UTF-8" standalone="no"?>
<!-- Created with Inkscape (http://www.inkscape.org/) -->

<svg
   xmlns:dc="http://purl.org/dc/elements/1.1/"
   xmlns:cc="http://creativecommons.org/ns#"
   xmlns:rdf="http://www.w3.org/1999/02/22-rdf-syntax-ns#"
   xmlns:svg="http://www.w3.org/2000/svg"
   xmlns="http://www.w3.org/2000/svg"
   xmlns:sodipodi="http://sodipodi.sourceforge.net/DTD/sodipodi-0.dtd"
   xmlns:inkscape="http://www.inkscape.org/namespaces/inkscape"
   width="210mm"
   height="297mm"
   viewBox="0 0 210 297"
   version="1.1"
   id="svg8"
   inkscape:export-filename="C:\Users\Michele\Desktop\Igor Galdino\DW - Final\img\logo1.png"
   inkscape:export-xdpi="362"
   inkscape:export-ydpi="362"
   inkscape:version="0.92.4 (5da689c313, 2019-01-14)"
   sodipodi:docname="desenhando.svg">
  <defs
     id="defs2" />
  <sodipodi:namedview
     id="base"
     pagecolor="#ffffff"
     bordercolor="#666666"
     borderopacity="1.0"
     inkscape:pageopacity="0.0"
     inkscape:pageshadow="2"
     inkscape:zoom="2.8"
     inkscape:cx="390.94236"
     inkscape:cy="818.71955"
     inkscape:document-units="mm"
     inkscape:current-layer="layer1"
     showgrid="false"
     inkscape:window-width="1366"
     inkscape:window-height="705"
     inkscape:window-x="-8"
     inkscape:window-y="-8"
     inkscape:window-maximized="1" />
  <metadata
     id="metadata5">
    <rdf:RDF>
      <cc:Work
         rdf:about="">
        <dc:format>image/svg+xml</dc:format>
        <dc:type
           rdf:resource="http://purl.org/dc/dcmitype/StillImage" />
        <dc:title></dc:title>
      </cc:Work>
    </rdf:RDF>
  </metadata>
  <g
     inkscape:label="Camada 1"
     inkscape:groupmode="layer"
     id="layer1">
    <text
       xml:space="preserve"
       style="font-style:normal;font-variant:normal;font-weight:normal;font-stretch:normal;font-size:7.05555534px;line-height:1.25;font-family:'Arial Rounded MT Bold';-inkscape-font-specification:'Arial Rounded MT Bold, Normal';font-variant-ligatures:normal;font-variant-caps:normal;font-variant-numeric:normal;font-feature-settings:normal;text-align:center;letter-spacing:0px;word-spacing:0px;writing-mode:lr-tb;text-anchor:middle;fill:#000000;fill-opacity:1;stroke:none;stroke-width:0.26458332"
       x="102.43751"
       y="79.62896"
       id="text12"><tspan
         sodipodi:role="line"
         id="tspan10"
         x="102.43751"
         y="79.62896"
         style="font-style:normal;font-variant:normal;font-weight:normal;font-stretch:normal;font-family:'Segoe Print';-inkscape-font-specification:'Segoe Print';stroke-width:0.26458332;fill:#666666">Michelle</tspan></text>
    <path
       style="opacity:1;fill:#4d4d4d;fill-opacity:1;fill-rule:nonzero;stroke:#f2f2f2;stroke-width:0;stroke-linecap:round;stroke-linejoin:bevel;stroke-miterlimit:0;stroke-dasharray:none;stroke-dashoffset:0;stroke-opacity:1;paint-order:stroke fill markers"
       d="m 131.4506,81.258286 c 0.009,-0.01525 -8e-4,-0.01828 -0.0345,-0.0098 -0.0594,0.0149 -0.23011,-0.04013 -0.21258,-0.06849 0.007,-0.01213 0.003,-0.01463 -0.0103,-0.0063 -0.0279,0.0173 -0.16036,-0.07946 -0.14432,-0.105453 0.006,-0.01007 -3e-5,-0.01597 -0.014,-0.01311 -0.0139,0.0027 -0.0229,-0.0063 -0.0201,-0.02007 0.002,-0.01391 -0.002,-0.02016 -0.0131,-0.014 -0.0259,0.01606 -0.12272,-0.116351 -0.10545,-0.14431 0.009,-0.01383 0.006,-0.01783 -0.006,-0.01026 -0.031,0.01917 -0.0837,-0.158732 -0.0701,-0.236939 0.009,-0.04967 0.006,-0.05886 -0.009,-0.03719 -0.0156,0.02194 -0.0205,0.0071 -0.0207,-0.06323 -1.9e-4,-0.06261 0.006,-0.08767 0.0209,-0.07875 0.0151,0.0093 0.0178,-0.014 0.009,-0.08009 -0.006,-0.05128 0.006,-0.299448 0.0274,-0.551556 0.0216,-0.252118 0.0414,-0.505663 0.0439,-0.563446 0.002,-0.05779 0.007,-0.173804 0.0109,-0.257843 0.005,-0.107807 0.0102,-0.135927 0.0192,-0.0955 0.007,0.03237 0.0133,-0.03425 0.0139,-0.152792 6.2e-4,-0.115558 0.0118,-0.332697 0.0251,-0.482546 0.0131,-0.149848 0.019,-0.285214 0.013,-0.300821 -0.006,-0.01632 -0.0351,-0.02836 -0.0677,-0.02836 -0.0312,0 -0.062,-0.0089 -0.0686,-0.01909 -0.006,-0.01053 -0.0246,-0.01909 -0.0404,-0.01909 -0.0809,0 -0.3529,-0.237857 -0.31718,-0.277393 0.007,-0.008 0.003,-0.0094 -0.009,-0.0017 -0.0285,0.01632 -0.0917,-0.109921 -0.0716,-0.142626 0.009,-0.01373 0.006,-0.01801 -0.006,-0.01061 -0.0266,0.01641 -0.0432,-0.0305 -0.0295,-0.08303 0.006,-0.0255 5.1e-4,-0.04843 -0.0156,-0.05842 -0.0386,-0.02381 -0.0399,-2.899115 -7.9e-4,-2.945545 0.0139,-0.01677 0.0234,-0.05458 0.0209,-0.0841 -0.007,-0.09075 -7e-5,-0.123753 0.0236,-0.109127 0.0151,0.0094 0.0187,7.93e-4 0.0115,-0.02676 -0.0122,-0.04664 0.0292,-0.180654 0.0588,-0.190535 0.011,-0.0036 0.0153,-0.0189 0.01,-0.03389 -0.006,-0.01498 0.003,-0.03256 0.0201,-0.03897 0.0167,-0.0063 0.0257,-0.01962 0.0197,-0.02926 -0.018,-0.02926 0.15673,-0.256237 0.28689,-0.372669 0.12801,-0.114487 0.36069,-0.248229 0.50724,-0.291555 0.0473,-0.014 0.11087,-0.033 0.14132,-0.04227 0.0304,-0.0093 0.12193,-0.01686 0.20328,-0.01686 0.11725,0 0.15031,0.0063 0.1595,0.03023 0.006,0.01659 0.0116,1.837 0.0116,4.045296 0,3.097383 -0.006,4.020325 -0.0229,4.03801 -0.0312,0.03122 -0.36705,0.0322 -0.34781,8.73e-4 z m 0.18927,-4.04634 v -3.88677 l -0.0765,0.0053 c -0.20648,0.0156 -0.49399,0.15371 -0.67001,0.321771 -0.10596,0.101172 -0.22729,0.272969 -0.28796,0.407781 -0.094,0.208818 -0.0925,0.180181 -0.0925,1.787146 v 1.51019 l 0.0477,0.09379 c 0.0543,0.106461 0.15564,0.215017 0.23932,0.256122 0.0312,0.01534 0.0681,0.03612 0.0818,0.04629 0.0138,0.01017 0.0683,0.0206 0.12115,0.02336 0.1445,0.0071 0.17649,0.04504 0.16041,0.188993 -0.007,0.06305 -0.0205,0.222035 -0.0299,0.353342 -0.009,0.131317 -0.0263,0.354779 -0.0375,0.496592 -0.0113,0.141813 -0.0292,0.378172 -0.0399,0.525238 -0.0107,0.147066 -0.0284,0.379126 -0.0393,0.515695 -0.0109,0.136561 -0.0243,0.371216 -0.0298,0.521466 -0.009,0.250298 -0.006,0.281808 0.032,0.376344 0.0446,0.109903 0.18585,0.260135 0.28113,0.299002 0.0736,0.02997 0.19316,0.05083 0.2727,0.04745 l 0.0669,-0.0027 z m -0.66538,1.179403 c -0.006,-0.01311 -0.01,-0.0027 -0.01,0.0239 0,0.02622 0.005,0.03701 0.01,0.0239 0.006,-0.01311 0.006,-0.0346 0,-0.04771 z m 0.1337,-0.03817 c -0.006,-0.01311 -0.01,-0.0027 -0.01,0.0239 0,0.02622 0.005,0.03701 0.01,0.0239 0.006,-0.01311 0.006,-0.0346 0,-0.04772 z m 0.47876,-5.182764 c -0.006,-0.0063 -0.0228,-0.0071 -0.0366,-0.0017 -0.0152,0.0063 -0.0107,0.01061 0.0115,0.0115 0.0202,7.94e-4 0.0314,-0.0036 0.0251,-0.01 z"
       id="path150"
       inkscape:connector-curvature="0" />
    <path
       style="opacity:1;fill:#4d4d4d;fill-opacity:1;fill-rule:nonzero;stroke:#f2f2f2;stroke-width:0;stroke-linecap:round;stroke-linejoin:bevel;stroke-miterlimit:0;stroke-dasharray:none;stroke-dashoffset:0;stroke-opacity:1;paint-order:stroke fill markers"
       d="m 128.33564,81.267677 c -0.15235,-0.0214 -0.32722,-0.156939 -0.4085,-0.316643 -0.0444,-0.08722 -0.0454,-0.101127 -0.0423,-0.513483 0.002,-0.23313 0.008,-0.431335 0.0136,-0.44046 0.006,-0.0091 0.0185,-0.224808 0.0285,-0.479307 0.01,-0.254499 0.0267,-0.656109 0.0373,-0.892467 0.0418,-0.942446 0.0589,-1.361073 0.0685,-1.675986 l 0.0101,-0.329468 h -0.059 c -0.14278,0 -0.35504,-0.152435 -0.43113,-0.309624 -0.0982,-0.202887 -0.10229,-0.315189 -0.0483,-1.332943 0.0401,-0.754855 0.0581,-1.129709 0.0699,-1.442026 0.0128,-0.338351 0.0267,-0.391541 0.10325,-0.391541 0.0812,0 0.0828,0.02283 0.05,0.721418 -0.0324,0.690303 -0.0573,1.159925 -0.0908,1.717618 -0.0109,0.180689 -0.0137,0.369779 -0.006,0.420196 0.0441,0.303301 0.20303,0.463646 0.45966,0.463995 0.14268,1.87e-4 0.13694,-0.07911 0.0829,1.146083 -0.0281,0.637139 -0.054,1.221284 -0.0738,1.661671 -0.051,1.135238 -0.0618,1.463698 -0.0508,1.537374 0.0154,0.103018 0.11324,0.2201 0.22949,0.274743 0.0896,0.04209 0.24755,0.05476 0.26813,0.02149 0.006,-0.01053 0.0274,-0.01909 0.0466,-0.01909 0.0504,0 0.1831,-0.13244 0.22062,-0.220359 0.0369,-0.08651 0.038,-0.04504 -0.0475,-1.899698 -0.0344,-0.746818 -0.0572,-1.257243 -0.0749,-1.680765 -0.009,-0.225853 -0.0234,-0.48424 -0.031,-0.574192 -0.018,-0.214053 -0.002,-0.247062 0.12096,-0.247204 0.21512,-2.68e-4 0.3687,-0.110572 0.43139,-0.309874 0.0485,-0.154246 0.0473,-0.231391 -0.0263,-1.647731 -0.0579,-1.113076 -0.0634,-1.306411 -0.0387,-1.33619 0.0295,-0.0355 0.0846,-0.03826 0.11011,-0.0053 0.024,0.03068 0.0578,0.527941 0.0991,1.456349 0.01,0.2206 0.0278,0.60307 0.04,0.849925 0.0282,0.5738 0.007,0.74608 -0.11455,0.913462 -0.0574,0.07919 -0.2072,0.194325 -0.25292,0.194325 -0.0144,0 -0.0343,0.008 -0.0443,0.01775 -0.01,0.0097 -0.0482,0.02051 -0.085,0.0239 l -0.0669,0.0063 0.002,0.133698 c 8e-4,0.07349 0.0126,0.365757 0.0258,0.649393 0.0526,1.124518 0.0915,2.013275 0.11343,2.587993 0.0102,0.267877 0.0248,0.54048 0.0322,0.605799 0.0293,0.255533 -0.0911,0.494978 -0.30682,0.610027 -0.0769,0.04103 -0.25595,0.06636 -0.3629,0.05137 z"
       id="path152"
       inkscape:connector-curvature="0" />
    <path
       style="opacity:1;fill:#4d4d4d;fill-opacity:1;fill-rule:nonzero;stroke:#f2f2f2;stroke-width:0;stroke-linecap:round;stroke-linejoin:bevel;stroke-miterlimit:0;stroke-dasharray:none;stroke-dashoffset:0;stroke-opacity:1;paint-order:stroke fill markers"
       d="m 128.60547,75.253708 c -0.0153,-0.03996 -0.0153,-2.009726 4e-5,-2.06701 0.0117,-0.04406 0.0694,-0.05743 0.11705,-0.02711 0.0189,0.01204 0.023,0.237758 0.0191,1.064505 l -0.005,1.049254 -0.0597,0.0063 c -0.0414,0.0044 -0.0633,-0.0036 -0.0716,-0.02542 z"
       id="path154"
       inkscape:connector-curvature="0" />
    <path
       style="opacity:1;fill:#4d4d4d;fill-opacity:1;fill-rule:nonzero;stroke:#f2f2f2;stroke-width:0;stroke-linecap:round;stroke-linejoin:bevel;stroke-miterlimit:0;stroke-dasharray:none;stroke-dashoffset:0;stroke-opacity:1;paint-order:stroke fill markers"
       d="m 128.07069,75.253708 c -0.006,-0.01722 -0.012,-0.484428 -0.012,-1.038312 0,-1.097219 -6.6e-4,-1.090351 0.10223,-1.064533 l 0.0509,0.01276 -0.006,1.054856 -0.005,1.054846 -0.0597,0.0063 c -0.0414,0.0044 -0.0633,-0.0036 -0.0716,-0.02542 z"
       id="path156"
       inkscape:connector-curvature="0" />
    <path
       style="opacity:1;fill:#4d4d4d;fill-opacity:1;fill-rule:nonzero;stroke:#f2f2f2;stroke-width:0;stroke-linecap:round;stroke-linejoin:bevel;stroke-miterlimit:0;stroke-dasharray:none;stroke-dashoffset:0;stroke-opacity:1;paint-order:stroke fill markers"
       id="path158"
       d="m 130.41317,77.168905 c -0.008,0.01846 -0.009,0.03773 -0.006,0.05717 0.01,0.01926 0.0235,0.0363 0.0357,0.05413 0.0109,0.01418 0.0197,0.02961 0.0247,0.04682 0.006,0.02747 0.0194,0.05119 0.0322,0.07589 0.0145,0.02453 0.0224,0.05182 0.0324,0.07822 0.002,0.0036 0.003,0.008 0.006,0.0116 0,0 -0.0837,0.0478 -0.0837,0.0478 v 0 c -0.002,-0.0036 -0.003,-0.008 -0.005,-0.01177 -0.0108,-0.02596 -0.0159,-0.05413 -0.0311,-0.07839 -0.0137,-0.02426 -0.0265,-0.0486 -0.035,-0.07527 -0.006,-0.01659 -0.0136,-0.03193 -0.0239,-0.04602 -0.0121,-0.01855 -0.0259,-0.03603 -0.0361,-0.05565 -0.004,-0.01953 -0.004,-0.0387 0.002,-0.05788 0,0 0.0877,-0.04673 0.0877,-0.04673 z"
       inkscape:connector-curvature="0" />
    <path
       style="opacity:1;fill:#4d4d4d;fill-opacity:1;fill-rule:nonzero;stroke:#f2f2f2;stroke-width:0;stroke-linecap:round;stroke-linejoin:bevel;stroke-miterlimit:0;stroke-dasharray:none;stroke-dashoffset:0;stroke-opacity:1;paint-order:stroke fill markers"
       d="m 119.21647,80.25176 c -0.40143,-0.107874 -0.69694,-0.43656 -0.76712,-0.853246 -0.0218,-0.129358 -0.0287,-0.686578 -0.0226,-1.831213 0.008,-1.531683 0.0125,-1.654746 0.0604,-1.782386 0.0983,-0.261085 0.28311,-0.47418 0.51293,-0.591429 0.20244,-0.103275 0.43954,-0.13425 1.03149,-0.134759 0.4703,-4.61e-4 0.55528,-0.0066 0.55528,-0.04082 0,-0.08859 0.136,-0.33775 0.25816,-0.472961 0.0837,-0.09262 0.19379,-0.174862 0.31207,-0.233082 l 0.18275,-0.08995 h 1.13853 c 1.10572,0 1.14216,0.0016 1.26393,0.05863 0.26414,0.123529 0.54241,0.449114 0.59085,0.691315 0.0162,0.08112 0.0246,0.08639 0.13725,0.08639 0.11732,0 0.11995,-0.002 0.11995,-0.08988 0,-0.04943 0.0192,-0.1173 0.0427,-0.150817 0.0404,-0.05755 0.0622,-0.06095 0.39212,-0.06095 0.23522,0 0.36019,0.01078 0.38234,0.03291 0.0182,0.0181 0.033,0.08573 0.033,0.150294 0,0.09999 0.009,0.11913 0.0617,0.129085 0.39876,0.07559 0.51784,0.132736 0.71435,0.342832 0.14779,0.157997 0.221,0.294923 0.26259,0.491072 0.0427,0.201866 0.0427,3.346686 -3e-5,3.548358 -0.0846,0.398527 -0.37371,0.696981 -0.77701,0.801997 -0.23945,0.06235 -6.25315,0.06105 -6.48556,-0.0014 z m 6.52805,-0.357016 c 0.15167,-0.07015 0.29738,-0.210451 0.36948,-0.355761 0.0509,-0.102511 0.0531,-0.18127 0.0531,-1.861999 0,-1.748307 -1.5e-4,-1.755383 -0.0595,-1.866098 -0.0671,-0.125309 -0.20816,-0.273627 -0.31069,-0.326628 -0.14746,-0.07623 -0.37337,-0.09695 -1.05706,-0.09695 h -0.6979 v -0.118415 c 0,-0.206192 -0.0716,-0.387604 -0.20608,-0.522081 -0.21337,-0.213362 -0.21197,-0.213159 -1.41213,-0.203948 -1.1689,0.009 -1.09335,-0.0024 -1.31142,0.19813 -0.12786,0.117614 -0.18629,0.246265 -0.2086,0.45933 l -0.0192,0.183201 -0.77267,0.0088 c -0.74451,0.0084 -0.77792,0.01116 -0.9164,0.07372 -0.15824,0.07153 -0.30854,0.220456 -0.38351,0.380009 -0.0449,0.09557 -0.0486,0.233863 -0.0486,1.817272 0,1.939266 -0.009,1.860677 0.21718,2.081872 0.24022,0.235763 -0.003,0.221031 3.52581,0.214005 3.10807,-0.0061 3.11249,-0.0063 3.23817,-0.06441 z"
       id="path187"
       inkscape:connector-curvature="0" />
    <path
       style="opacity:1;fill:#4d4d4d;fill-opacity:1;fill-rule:nonzero;stroke:#f2f2f2;stroke-width:0;stroke-linecap:round;stroke-linejoin:bevel;stroke-miterlimit:0;stroke-dasharray:none;stroke-dashoffset:0;stroke-opacity:1;paint-order:stroke fill markers"
       d="m 121.36152,75.304189 c -0.0744,-0.02989 -0.0876,-0.175296 -0.0183,-0.201872 0.0238,-0.0091 0.53551,-0.01664 1.13701,-0.01664 1.05188,0 1.09472,0.002 1.12193,0.05285 0.0377,0.07041 0.009,0.137586 -0.0731,0.168614 -0.0857,0.03259 -2.08595,0.02987 -2.1676,-0.003 z"
       id="path189"
       inkscape:connector-curvature="0" />
    <path
       style="opacity:1;fill:#4d4d4d;fill-opacity:1;fill-rule:nonzero;stroke:#f2f2f2;stroke-width:0;stroke-linecap:round;stroke-linejoin:bevel;stroke-miterlimit:0;stroke-dasharray:none;stroke-dashoffset:0;stroke-opacity:1;paint-order:stroke fill markers"
       d="m 122.19764,79.607651 c -0.23006,-0.03064 -0.53435,-0.135263 -0.73215,-0.251724 -0.0827,-0.04868 -0.25716,-0.193394 -0.38771,-0.321588 -0.20206,-0.198404 -0.25612,-0.271839 -0.36329,-0.493584 -0.33845,-0.700284 -0.26733,-1.472843 0.19182,-2.083653 0.62915,-0.836961 1.84573,-1.016159 2.7103,-0.399218 0.33227,0.237098 0.60783,0.616938 0.73741,1.016441 0.0623,0.192058 0.0921,0.548939 0.0674,0.805229 -0.063,0.65213 -0.47864,1.245575 -1.0787,1.540331 -0.35546,0.17461 -0.75368,0.239906 -1.14507,0.187766 z m 0.73498,-0.352337 c 0.55983,-0.155238 1.05227,-0.681977 1.16479,-1.245923 0.0743,-0.372595 0.0189,-0.775231 -0.15441,-1.120585 -0.12395,-0.24697 -0.44049,-0.569274 -0.68766,-0.700105 -0.95099,-0.503373 -2.12922,0.01325 -2.39434,1.049849 -0.319,1.247321 0.82613,2.362131 2.07162,2.016764 z"
       id="path191"
       inkscape:connector-curvature="0" />
    <path
       style="opacity:1;fill:#4d4d4d;fill-opacity:1;fill-rule:nonzero;stroke:#f2f2f2;stroke-width:0;stroke-linecap:round;stroke-linejoin:bevel;stroke-miterlimit:0;stroke-dasharray:none;stroke-dashoffset:0;stroke-opacity:1;paint-order:stroke fill markers"
       d=""
       id="path193"
       inkscape:connector-curvature="0"
       transform="scale(0.26458333)" />
    <path
       style="opacity:1;fill:#4d4d4d;fill-opacity:1;fill-rule:nonzero;stroke:#f2f2f2;stroke-width:0;stroke-linecap:round;stroke-linejoin:bevel;stroke-miterlimit:0;stroke-dasharray:none;stroke-dashoffset:0;stroke-opacity:1;paint-order:stroke fill markers"
       d="m 121.23711,77.838201 c -0.0327,-0.03269 -0.0219,-0.236595 0.0213,-0.402437 0.12346,-0.473883 0.45354,-0.832934 0.91583,-0.996123 0.23432,-0.08272 0.48225,-0.08851 0.52307,-0.01228 0.0434,0.08103 -0.0249,0.128176 -0.21425,0.147965 -0.56958,0.05953 -1.00289,0.501272 -1.06764,1.088396 -0.0181,0.163785 -0.0251,0.178378 -0.0891,0.185854 -0.0382,0.0045 -0.0783,-6.38e-4 -0.0891,-0.01141 z"
       id="path195"
       inkscape:connector-curvature="0" />
  </g>
</svg>
